<svg width="563" height="75" viewBox="0 0 563 75" fill="none" xmlns="http://www.w3.org/2000/svg">
<path d="M136.25 55.0938C136.25 52.4375 135.312 50.4062 133.438 49C131.562 47.5625 128.188 46.0625 123.312 44.5C118.438 42.9062 114.578 41.3438 111.734 39.8125C103.984 35.625 100.109 29.9844 100.109 22.8906C100.109 19.2031 101.141 15.9219 103.203 13.0469C105.297 10.1406 108.281 7.875 112.156 6.25C116.062 4.625 120.438 3.8125 125.281 3.8125C130.156 3.8125 134.5 4.70312 138.312 6.48438C142.125 8.23438 145.078 10.7188 147.172 13.9375C149.297 17.1562 150.359 20.8125 150.359 24.9062H136.297C136.297 21.7812 135.312 19.3594 133.344 17.6406C131.375 15.8906 128.609 15.0156 125.047 15.0156C121.609 15.0156 118.938 15.75 117.031 17.2188C115.125 18.6562 114.172 20.5625 114.172 22.9375C114.172 25.1562 115.281 27.0156 117.5 28.5156C119.75 30.0156 123.047 31.4219 127.391 32.7344C135.391 35.1406 141.219 38.125 144.875 41.6875C148.531 45.25 150.359 49.6875 150.359 55C150.359 60.9062 148.125 65.5469 143.656 68.9219C139.188 72.2656 133.172 73.9375 125.609 73.9375C120.359 73.9375 115.578 72.9844 111.266 71.0781C106.953 69.1406 103.656 66.5 101.375 63.1562C99.125 59.8125 98 55.9375 98 51.5312H112.109C112.109 59.0625 116.609 62.8281 125.609 62.8281C128.953 62.8281 131.562 62.1562 133.438 60.8125C135.312 59.4375 136.25 57.5312 136.25 55.0938Z" fill="white"/>
<path d="M171.734 22.2812L172.156 27.9531C175.75 23.5469 180.609 21.3438 186.734 21.3438C193.266 21.3438 197.75 23.9219 200.188 29.0781C203.75 23.9219 208.828 21.3438 215.422 21.3438C220.922 21.3438 225.016 22.9531 227.703 26.1719C230.391 29.3594 231.734 34.1719 231.734 40.6094V73H218.141V40.6562C218.141 37.7812 217.578 35.6875 216.453 34.375C215.328 33.0312 213.344 32.3594 210.5 32.3594C206.438 32.3594 203.625 34.2969 202.062 38.1719L202.109 73H188.562V40.7031C188.562 37.7656 187.984 35.6406 186.828 34.3281C185.672 33.0156 183.703 32.3594 180.922 32.3594C177.078 32.3594 174.297 33.9531 172.578 37.1406V73H159.031V22.2812H171.734Z" fill="white"/>
<path d="M271.578 73C270.953 71.7812 270.5 70.2656 270.219 68.4531C266.938 72.1094 262.672 73.9375 257.422 73.9375C252.453 73.9375 248.328 72.5 245.047 69.625C241.797 66.75 240.172 63.125 240.172 58.75C240.172 53.375 242.156 49.25 246.125 46.375C250.125 43.5 255.891 42.0469 263.422 42.0156H269.656V39.1094C269.656 36.7656 269.047 34.8906 267.828 33.4844C266.641 32.0781 264.75 31.375 262.156 31.375C259.875 31.375 258.078 31.9219 256.766 33.0156C255.484 34.1094 254.844 35.6094 254.844 37.5156H241.297C241.297 34.5781 242.203 31.8594 244.016 29.3594C245.828 26.8594 248.391 24.9062 251.703 23.5C255.016 22.0625 258.734 21.3438 262.859 21.3438C269.109 21.3438 274.062 22.9219 277.719 26.0781C281.406 29.2031 283.25 33.6094 283.25 39.2969V61.2812C283.281 66.0938 283.953 69.7344 285.266 72.2031V73H271.578ZM260.375 63.5781C262.375 63.5781 264.219 63.1406 265.906 62.2656C267.594 61.3594 268.844 60.1562 269.656 58.6562V49.9375H264.594C257.812 49.9375 254.203 52.2812 253.766 56.9688L253.719 57.7656C253.719 59.4531 254.312 60.8438 255.5 61.9375C256.688 63.0312 258.312 63.5781 260.375 63.5781Z" fill="white"/>
<path d="M322.156 34.9844C320.312 34.7344 318.688 34.6094 317.281 34.6094C312.156 34.6094 308.797 36.3438 307.203 39.8125V73H293.656V22.2812H306.453L306.828 28.3281C309.547 23.6719 313.312 21.3438 318.125 21.3438C319.625 21.3438 321.031 21.5469 322.344 21.9531L322.156 34.9844Z" fill="white"/>
<path d="M347.281 9.8125V22.2812H355.953V32.2188H347.281V57.5312C347.281 59.4062 347.641 60.75 348.359 61.5625C349.078 62.375 350.453 62.7812 352.484 62.7812C353.984 62.7812 355.312 62.6719 356.469 62.4531V72.7188C353.812 73.5312 351.078 73.9375 348.266 73.9375C338.766 73.9375 333.922 69.1406 333.734 59.5469V32.2188H326.328V22.2812H333.734V9.8125H347.281Z" fill="white"/>
<path d="M406.672 4.75L424.203 54.25L441.641 4.75H460.109V73H446V54.3438L447.406 22.1406L428.984 73H419.328L400.953 22.1875L402.359 54.3438V73H388.297V4.75H406.672Z" fill="white"/>
<path d="M500.891 73C500.266 71.7812 499.812 70.2656 499.531 68.4531C496.25 72.1094 491.984 73.9375 486.734 73.9375C481.766 73.9375 477.641 72.5 474.359 69.625C471.109 66.75 469.484 63.125 469.484 58.75C469.484 53.375 471.469 49.25 475.438 46.375C479.438 43.5 485.203 42.0469 492.734 42.0156H498.969V39.1094C498.969 36.7656 498.359 34.8906 497.141 33.4844C495.953 32.0781 494.062 31.375 491.469 31.375C489.188 31.375 487.391 31.9219 486.078 33.0156C484.797 34.1094 484.156 35.6094 484.156 37.5156H470.609C470.609 34.5781 471.516 31.8594 473.328 29.3594C475.141 26.8594 477.703 24.9062 481.016 23.5C484.328 22.0625 488.047 21.3438 492.172 21.3438C498.422 21.3438 503.375 22.9219 507.031 26.0781C510.719 29.2031 512.562 33.6094 512.562 39.2969V61.2812C512.594 66.0938 513.266 69.7344 514.578 72.2031V73H500.891ZM489.688 63.5781C491.688 63.5781 493.531 63.1406 495.219 62.2656C496.906 61.3594 498.156 60.1562 498.969 58.6562V49.9375H493.906C487.125 49.9375 483.516 52.2812 483.078 56.9688L483.031 57.7656C483.031 59.4531 483.625 60.8438 484.812 61.9375C486 63.0312 487.625 63.5781 489.688 63.5781Z" fill="white"/>
<path d="M537.266 73H523.672V1H537.266V73Z" fill="white"/>
<path d="M562.766 73H549.172V1H562.766V73Z" fill="white"/>
<path d="M46.0834 72.8833H1.31667L3.95001 20.2166H43.45L46.0834 72.8833Z" fill="#EB423F"/>
<path d="M56.6167 72.8833H46.0834L43.45 20.2166H53.9834L56.6167 72.8833Z" fill="#D13330"/>
<path d="M77.6834 72.8835H67.15L66.9855 70.7554V70.7538L64.5167 38.6501H75.05L77.4777 70.1991V70.2008L77.6834 72.8835Z" fill="#EBA72E"/>
<path d="M18.4334 43.9164H10.5333V33.3831L14.4834 30.7498L18.4334 33.3831V43.9164Z" fill="#F7B030"/>
<path d="M67.1501 72.8835H32.9167L35.55 38.6501H64.5167L67.1501 72.8835Z" fill="#F7B030"/>
<path d="M76.3629 38.5489C76.3375 38.2181 76.1881 37.9092 75.9447 37.6838C75.7013 37.4584 75.3818 37.3332 75.0501 37.3333H56.1575L55.2984 20.1508C55.2815 19.8134 55.1356 19.4954 54.8908 19.2626C54.6461 19.0298 54.3212 18.8999 53.9834 18.8999H44.7667V12.3166C44.7674 10.4206 44.3129 8.55221 43.4416 6.86834C42.5703 5.18447 41.3075 3.73435 39.7593 2.63983C38.2112 1.54531 36.423 0.838373 34.545 0.578425C32.6669 0.318476 30.7539 0.513111 28.9667 1.14597C27.1795 0.513111 25.2665 0.318476 23.3884 0.578425C21.5104 0.838373 19.7221 1.54531 18.174 2.63983C16.6259 3.73435 15.3631 5.18447 14.4918 6.86834C13.6204 8.55221 13.166 10.4206 13.1667 12.3166V18.8999H3.95C3.6122 18.8999 3.28732 19.0298 3.04255 19.2626C2.79779 19.4954 2.65187 19.8134 2.63498 20.1508L0.00164694 72.8175C-0.00727559 72.9957 0.0201245 73.1739 0.0821829 73.3412C0.144241 73.5085 0.239663 73.6614 0.362652 73.7907C0.48564 73.92 0.633629 74.023 0.797629 74.0933C0.96163 74.1637 1.13822 74.2 1.31667 74.2H77.6834C77.8648 74.2 78.0443 74.1625 78.2106 74.0899C78.3768 74.0172 78.5263 73.911 78.6496 73.7779C78.7728 73.6448 78.8673 73.4876 78.9269 73.3163C78.9866 73.145 79.0102 72.9631 78.9963 72.7822L76.3629 38.5489ZM72.4167 67.3569L75.2232 71.5666H69.6109L72.4167 67.3569ZM75.9842 67.9608L73.6942 64.5259L71.2383 39.9666H73.8308L75.9842 67.9608ZM68.5918 39.9666L71.0606 64.6452L68.1705 68.9794L65.9386 39.9666H68.5918ZM53.5209 37.3333H51.0428L50.1132 21.5333H52.7301L53.5209 37.3333ZM47.4753 21.5333L48.4048 37.3333H45.6234L44.8334 21.5333H47.4753ZM32.9167 3.09991C35.3602 3.1027 37.7029 4.07463 39.4308 5.80249C41.1586 7.53035 42.1306 9.87302 42.1334 12.3166V18.8999H36.8667V12.3166C36.8667 10.5512 36.4716 8.80825 35.7105 7.21542C34.9494 5.62258 33.8414 4.22026 32.4679 3.11127C32.6167 3.10419 32.7661 3.09991 32.9167 3.09991ZM28.9667 3.99096C30.5414 4.73942 31.8719 5.91869 32.804 7.39216C33.7361 8.86564 34.2317 10.573 34.2334 12.3166V18.8999H23.7V12.3166C23.7017 10.573 24.1973 8.86564 25.1294 7.39216C26.0615 5.91869 27.392 4.73942 28.9667 3.99096V3.99096ZM15.8 12.3166C15.8028 9.87302 16.7747 7.53035 18.5026 5.80249C20.2305 4.07463 22.5731 3.1027 25.0167 3.09991C25.1673 3.09991 25.3167 3.10419 25.4655 3.11127C24.0919 4.22024 22.984 5.62255 22.2228 7.21539C21.4617 8.80823 21.0666 10.5512 21.0667 12.3166V18.8999H15.8V12.3166ZM31.6975 71.5666H2.70082L5.20248 21.5333H13.1667V30.0453L9.80292 32.2878C9.62259 32.408 9.47473 32.5709 9.37246 32.762C9.27019 32.9531 9.21668 33.1665 9.21667 33.3833V43.9166C9.21667 44.2658 9.3554 44.6007 9.60232 44.8476C9.84924 45.0946 10.1841 45.2333 10.5333 45.2333H18.4333C18.7826 45.2333 19.1175 45.0946 19.3644 44.8476C19.6113 44.6007 19.75 44.2658 19.75 43.9166V33.3833C19.75 33.1665 19.6965 32.9531 19.5942 32.762C19.492 32.5709 19.3441 32.408 19.1638 32.2878L15.8 30.0453V21.5333H34.2334V25.4833C34.2334 25.8325 34.3721 26.1674 34.619 26.4143C34.8659 26.6612 35.2008 26.7999 35.55 26.7999C35.8992 26.7999 36.2341 26.6612 36.4811 26.4143C36.728 26.1674 36.8667 25.8325 36.8667 25.4833V21.5333H42.1976L42.9876 37.3333H35.55C35.2183 37.3332 34.8988 37.4584 34.6554 37.6838C34.412 37.9092 34.2626 38.2181 34.2371 38.5489L31.6975 71.5666ZM14.4833 32.3324L17.1167 34.0878V42.5999H11.85V34.0878L14.4833 32.3324ZM36.7693 39.9666H63.2975L65.7282 71.5666H34.3385L36.7693 39.9666Z" fill="white"/>
<path d="M56.6167 45.2334C56.2675 45.2334 55.9326 45.3721 55.6857 45.619C55.4388 45.866 55.3 46.2009 55.3 46.5501V57.0834C55.2989 58.1307 54.8823 59.1347 54.1418 59.8752C53.4013 60.6157 52.3973 61.0322 51.35 61.0334H48.7167C47.6695 61.0322 46.6654 60.6157 45.9249 59.8752C45.1844 59.1347 44.7679 58.1307 44.7667 57.0834V46.5501C44.7667 46.2009 44.628 45.866 44.3811 45.619C44.1341 45.3721 43.7992 45.2334 43.45 45.2334C43.1008 45.2334 42.7659 45.3721 42.519 45.619C42.2721 45.866 42.1334 46.2009 42.1334 46.5501V57.0834C42.1353 58.8288 42.8296 60.5022 44.0637 61.7364C45.2979 62.9706 46.9713 63.6648 48.7167 63.6667H51.35C53.0954 63.6648 54.7688 62.9706 56.003 61.7364C57.2372 60.5022 57.9314 58.8288 57.9334 57.0834V46.5501C57.9334 46.2009 57.7947 45.866 57.5477 45.619C57.3008 45.3721 56.9659 45.2334 56.6167 45.2334Z" fill="white"/>
</svg>
